<svg xmlns="http://www.w3.org/2000/svg" width="40" height="40" viewBox="0 0 40 40">
  <defs>
    <style>
      .cls-1 {
        fill: #dbdbdb;
      }

      .cls-2 {
        fill: none;
      }
    </style>
  </defs>
  <g id="그룹_218" data-name="그룹 218" transform="translate(-1439.068 -620.068)">
    <path id="패스_84" data-name="패스 84" class="cls-1" d="M2.551,22.509H33.569v3.1H2.551Zm1.784-6.281,1.318-2.3,1.318,2.3,2.016-1.163-1.318-2.3h2.637V10.443H7.669l1.318-2.28L6.971,7,5.653,9.28,4.334,7,2.318,8.163l1.318,2.28H1v2.326H3.637l-1.318,2.3Zm10.391-1.163,2.016,1.163,1.318-2.3,1.318,2.3,2.016-1.163-1.318-2.3h2.637V10.443H20.076l1.318-2.28L19.378,7,18.06,9.28,16.742,7,14.726,8.163l1.318,2.28H13.407v2.326h2.637ZM35.12,10.443H32.483L33.8,8.163,31.785,7,30.467,9.28,29.149,7,27.133,8.163l1.318,2.28H25.814v2.326h2.637l-1.318,2.3,2.016,1.163,1.318-2.3,1.318,2.3L33.8,15.065l-1.318-2.3H35.12Z" transform="translate(1441.008 626.864)"/>
    <rect id="사각형_26043" data-name="사각형 26043" class="cls-2" width="40" height="40" transform="translate(1439.068 620.068)"/>
  </g>
</svg>
